<svg width="512" height="512" viewBox="0 0 512 512" fill="none" xmlns="http://www.w3.org/2000/svg">
  <rect width="512" height="512" fill="black"/>
  
  <path d="M140 120C140 97.9086 157.909 80 180 80H332C354.091 80 372 97.9086 372 120V380H140V120Z" fill="white"/>
  
  <path d="M160 130C160 121.716 166.716 115 175 115H337C345.284 115 352 121.716 352 130V240H160V130Z" fill="black"/>
  
  <rect x="115" y="160" width="15" height="60" rx="5" fill="white"/>
  <rect x="382" y="160" width="15" height="60" rx="5" fill="white"/>
  
  <circle cx="185" cy="330" r="12" fill="black"/>
  <circle cx="327" cy="330" r="12" fill="black"/>
  
  <path d="M220 440L235 440L245 420L255 460L265 440L292 440" stroke="white" stroke-width="4" stroke-linecap="round" stroke-linejoin="round"/>
  
  <rect x="165" y="380" width="40" height="15" rx="4" fill="white"/>
  <rect x="307" y="380" width="40" height="15" rx="4" fill="white"/>
</svg>
